<svg xmlns="http://www.w3.org/2000/svg" xmlns:svgjs="http://svgjs.com/svgjs" xmlns:xlink="http://www.w3.org/1999/xlink" width="288" height="288"><svg xmlns="http://www.w3.org/2000/svg" width="288" height="288" version="1.0" viewBox="0 0 512 512"><g fill="#fff" class="color000 svgShape" transform="matrix(.1 0 0 -.1 0 512)"><path d="M800 3228l0-1758 118 0c64 0 196 5 292 11 234 14 587 14 680 0 160-24 310-76 405-140 26-18 50-29 54-26 3 4 8 752 9 1663l4 1656-24 18c-318 251-594 319-1345 331l-193 3 0-1758zM3670 4969c-356-33-623-122-833-276l-79-58 4-1657c2-911 7-1660 10-1664 4-3 19 3 35 14 89 62 256 126 391 148 114 19 407 21 717 5 110-6 246-11 303-11l102 0 0 1755 0 1755-277-1c-153-1-321-6-373-10z" class="color000 svgShape"/><path d="M125 4371 c-51 -23 -92 -70 -102 -119 -4 -20 -8 -827 -8 -1792 0-1334 3 -1770 12 -1820 15 -76 56 -125 119 -142 24 -6 354 -12 879 -17 l840
-6 40 -24 c22 -14 116 -76 210 -140 93 -63 204 -130 245 -150 74 -35 77 -36
200 -36 123 0 126 1 201 37 43 20 153 88 247 151 94 64 193 127 221 141 l50
26 783 0 c431 1 816 5 856 9 88 11 131 39 168 113 l25 50 -3 1797 c-4 1980 1
1832 -64 1893 -40 36 -91 48 -216 48 l-108 0 -2 -1537 -3 -1538 -22 -60 c-30
-77 -90 -139 -163 -166 -52 -20 -85 -21 -635 -30 -319 -5 -623 -13 -675 -19
-124 -12 -195 -46 -275 -132 -126 -137 -149 -159 -189 -182 -55 -32 -139 -56
-196 -56 -57 0 -141 24 -196 56 -23 14 -88 75 -145 136 -133 143 -177 166
-342 179 -61 5 -364 13 -672 18 -533 9 -563 10 -616 30 -75 28 -132 87 -161
165 l-23 61 -3 1538 -2 1537 -118 0 c-92 0 -126 -4 -157 -19z" class="color000 svgShape"/></g></svg></svg>