<?xml version="1.0" standalone="no"?>
<!DOCTYPE svg PUBLIC "-//W3C//DTD SVG 20010904//EN"
 "http://www.w3.org/TR/2001/REC-SVG-20010904/DTD/svg10.dtd">
<svg version="1.0" xmlns="http://www.w3.org/2000/svg"
 width="512.000000pt" height="512.000000pt" viewBox="0 0 512.000000 512.000000"
 preserveAspectRatio="xMidYMid meet">
<metadata>
Created by potrace 1.14, written by Peter Selinger 2001-2017
</metadata>
<g transform="translate(0.000000,512.000000) scale(0.100000,-0.100000)"
fill="#000000" stroke="none">
<path d="M800 3223 l0 -1766 208 7 c114 3 303 10 420 16 421 18 656 -20 853
-139 62 -38 64 -38 71 -18 3 12 6 763 7 1669 l1 1648 -50 39 c-194 154 -416
239 -720 276 -126 15 -505 34 -702 35 l-88 0 0 -1767z"/>
<path d="M3795 4979 c-428 -19 -719 -105 -957 -281 l-79 -58 3 -1664 c2 -916
6 -1667 9 -1671 4 -3 28 8 54 26 65 44 194 97 293 120 124 30 320 39 570 29
119 -5 310 -13 425 -16 l207 -7 0 1766 0 1767 -177 -2 c-98 0 -254 -5 -348 -9z"/>
<path d="M160 4391 c-53 -17 -91 -43 -118 -83 l-27 -42 -3 -1700 c-3 -1768 0
-1958 35 -2005 33 -43 67 -62 131 -71 34 -5 428 -12 874 -16 l812 -7 49 -29
c27 -16 119 -76 205 -135 87 -58 191 -122 232 -142 75 -36 76 -36 210 -36 134
0 135 0 210 36 41 20 145 83 230 141 85 58 180 119 210 135 l55 31 845 6 845
6 45 23 c33 17 54 38 78 77 l33 55 -3 1815 c-3 1667 -4 1817 -20 1845 -42 78
-86 96 -245 103 l-122 5 -4 -1524 c-4 -1604 -3 -1576 -46 -1659 -26 -49 -85
-100 -141 -121 -52 -20 -83 -22 -615 -30 -308 -5 -611 -13 -673 -18 -146 -12
-211 -41 -297 -133 -139 -151 -159 -169 -223 -200 -61 -30 -75 -33 -162 -33
-87 0 -101 3 -161 32 -54 27 -86 54 -173 148 -145 155 -184 175 -369 186 -72
5 -375 13 -672 18 -519 8 -542 10 -597 31 -62 23 -108 62 -135 114 -47 89 -45
48 -50 1664 l-5 1522 -106 -1 c-59 0 -118 -4 -132 -8z"/>
</g>
</svg>
